<?xml version="1.0" encoding="UTF-8" standalone="no"?>
<svg
   xmlns:dc="http://purl.org/dc/elements/1.1/"
   xmlns:cc="http://creativecommons.org/ns#"
   xmlns:rdf="http://www.w3.org/1999/02/22-rdf-syntax-ns#"
   xmlns:svg="http://www.w3.org/2000/svg"
   xmlns="http://www.w3.org/2000/svg"
   xmlns:sodipodi="http://sodipodi.sourceforge.net/DTD/sodipodi-0.dtd"
   xmlns:inkscape="http://www.inkscape.org/namespaces/inkscape"
   width="17.14286"
   height="16"
   viewBox="0 0 17.14286 16"
   id="svg2"
   version="1.1"
   inkscape:version="0.91 r13725"
   sodipodi:docname="icon-university.svg">
  <metadata
     id="metadata10">
    <rdf:RDF>
      <cc:Work
         rdf:about="">
        <dc:format>image/svg+xml</dc:format>
        <dc:type
           rdf:resource="http://purl.org/dc/dcmitype/StillImage" />
        <dc:title></dc:title>
      </cc:Work>
    </rdf:RDF>
  </metadata>
  <defs
     id="defs8" />
  <sodipodi:namedview
     pagecolor="#ffffff"
     bordercolor="#666666"
     borderopacity="1"
     objecttolerance="10"
     gridtolerance="10"
     guidetolerance="10"
     inkscape:pageopacity="0"
     inkscape:pageshadow="2"
     inkscape:window-width="720"
     inkscape:window-height="480"
     id="namedview6"
     showgrid="false"
     fit-margin-top="0"
     fit-margin-left="0"
     fit-margin-right="0"
     fit-margin-bottom="0"
     inkscape:zoom="0.13169643"
     inkscape:cx="72.57143"
     inkscape:cy="8"
     inkscape:window-x="0"
     inkscape:window-y="0"
     inkscape:window-maximized="0"
     inkscape:current-layer="svg2" />
  <path
     d="m 8.57143,0 8.57143,3.42857 0,1.14286 -1.14286,0 q 0,0.23214 -0.18303,0.40178 -0.18304,0.16965 -0.43304,0.16965 l -13.625,0 q -0.25,0 -0.43304,-0.16965 Q 1.14286,4.80357 1.14286,4.57143 L 0,4.57143 0,3.42857 Z m -6.28571,5.71429 2.28571,0 0,6.85714 1.14286,0 0,-6.85714 2.28571,0 0,6.85714 1.14286,0 0,-6.85714 2.28571,0 0,6.85714 1.14286,0 0,-6.85714 2.28571,0 0,6.85714 0.52679,0 q 0.25,0 0.43304,0.16964 Q 16,12.91071 16,13.14286 l 0,0.57143 -14.85714,0 0,-0.57143 q 0,-0.23215 0.18303,-0.40179 0.18304,-0.16964 0.43304,-0.16964 l 0.52679,0 0,-6.85714 z m 14.24107,8.57142 q 0.25,0 0.43303,0.16965 0.18304,0.16964 0.18304,0.40178 L 17.14286,16 0,16 0,14.85714 Q 0,14.625 0.18304,14.45536 0.36607,14.28571 0.61607,14.28571 l 15.91072,0 z"
     id="path4"
     inkscape:connector-curvature="0" />
</svg>
