<?xml version="1.0" encoding="UTF-8" standalone="no"?>
<svg
   xmlns:dc="http://purl.org/dc/elements/1.1/"
   xmlns:cc="http://creativecommons.org/ns#"
   xmlns:rdf="http://www.w3.org/1999/02/22-rdf-syntax-ns#"
   xmlns:svg="http://www.w3.org/2000/svg"
   xmlns="http://www.w3.org/2000/svg"
   xmlns:sodipodi="http://sodipodi.sourceforge.net/DTD/sodipodi-0.dtd"
   xmlns:inkscape="http://www.inkscape.org/namespaces/inkscape"
   width="15.200994"
   height="15.99992"
   viewBox="0 0 15.200994 15.99992"
   id="svg2"
   version="1.1"
   inkscape:version="0.91 r13725"
   sodipodi:docname="icon-flask.svg">
  <metadata
     id="metadata10">
    <rdf:RDF>
      <cc:Work
         rdf:about="">
        <dc:format>image/svg+xml</dc:format>
        <dc:type
           rdf:resource="http://purl.org/dc/dcmitype/StillImage" />
        <dc:title></dc:title>
      </cc:Work>
    </rdf:RDF>
  </metadata>
  <defs
     id="defs8" />
  <sodipodi:namedview
     pagecolor="#ffffff"
     bordercolor="#666666"
     borderopacity="1"
     objecttolerance="10"
     gridtolerance="10"
     guidetolerance="10"
     inkscape:pageopacity="0"
     inkscape:pageshadow="2"
     inkscape:window-width="1015"
     inkscape:window-height="830"
     id="namedview6"
     showgrid="false"
     fit-margin-top="0"
     fit-margin-left="0"
     fit-margin-right="0"
     fit-margin-bottom="0"
     inkscape:zoom="0.26"
     inkscape:cx="7.6004967"
     inkscape:cy="7.99996"
     inkscape:window-x="0"
     inkscape:window-y="1"
     inkscape:window-maximized="0"
     inkscape:current-layer="svg2" />
  <path
     d="m 14.840037,13.74993 q 0.58333,0.92708 0.22396,1.58853 -0.35937,0.66146 -1.46353,0.66146 l -11.9999403,0 q -1.10415999,0 -1.46352999,-0.66146 -0.35937,-0.66145 0.22396,-1.58853 l 5.23954999,-8.26037 0,-4.15623 -0.66666,0 q -0.27083,0 -0.46875,-0.19792 -0.19792,-0.19791 -0.19792,-0.46874 0,-0.27084 0.19792,-0.46875 Q 4.6630167,0 4.9338467,0 l 5.3333003,0 q 0.27083,0 0.46875,0.19792 0.19792,0.19791 0.19792,0.46875 0,0.27083 -0.19792,0.46874 -0.19792,0.19792 -0.46875,0.19792 l -0.6666603,0 0,4.15623 z m -8.1145403,-7.55204 -2.83331,4.46872 7.4166203,0 -2.8333103,-4.46872 -0.20834,-0.32292 0,-4.54164 -1.33332,0 0,4.54164 z"
     id="path4"
     inkscape:connector-curvature="0" />
</svg>
