<?xml version="1.0" encoding="UTF-8" standalone="no"?>
<svg
   xmlns:dc="http://purl.org/dc/elements/1.1/"
   xmlns:cc="http://creativecommons.org/ns#"
   xmlns:rdf="http://www.w3.org/1999/02/22-rdf-syntax-ns#"
   xmlns:svg="http://www.w3.org/2000/svg"
   xmlns="http://www.w3.org/2000/svg"
   xmlns:sodipodi="http://sodipodi.sourceforge.net/DTD/sodipodi-0.dtd"
   xmlns:inkscape="http://www.inkscape.org/namespaces/inkscape"
   width="30"
   height="16"
   viewBox="0 0 30 16"
   id="svg2"
   version="1.1"
   inkscape:version="0.91 r13725"
   sodipodi:docname="icon-gamepad.svg">
  <metadata
     id="metadata10">
    <rdf:RDF>
      <cc:Work
         rdf:about="">
        <dc:format>image/svg+xml</dc:format>
        <dc:type
           rdf:resource="http://purl.org/dc/dcmitype/StillImage" />
        <dc:title></dc:title>
      </cc:Work>
    </rdf:RDF>
  </metadata>
  <defs
     id="defs8" />
  <sodipodi:namedview
     pagecolor="#ffffff"
     bordercolor="#666666"
     borderopacity="1"
     objecttolerance="10"
     gridtolerance="10"
     guidetolerance="10"
     inkscape:pageopacity="0"
     inkscape:pageshadow="2"
     inkscape:window-width="720"
     inkscape:window-height="480"
     id="namedview6"
     showgrid="false"
     fit-margin-top="0"
     fit-margin-left="0"
     fit-margin-right="0"
     fit-margin-bottom="0"
     inkscape:zoom="0.13169643"
     inkscape:cx="15"
     inkscape:cy="136"
     inkscape:window-x="0"
     inkscape:window-y="0"
     inkscape:window-maximized="0"
     inkscape:current-layer="svg2" />
  <path
     d="M 13,9 13,7 Q 13,6.7812 12.8594,6.6406 12.7187,6.5 12.5,6.5 l -3,0 0,-3 Q 9.5,3.2812 9.3594,3.1406 9.2187,3 9,3 L 7,3 Q 6.7812,3 6.6406,3.1406 6.5,3.2812 6.5,3.5 l 0,3 -3,0 Q 3.2812,6.5 3.1406,6.6406 3,6.7812 3,7 L 3,9 Q 3,9.2188 3.1406,9.3594 3.2812,9.5 3.5,9.5 l 3,0 0,3 q 0,0.2188 0.1406,0.3594 Q 6.7812,13 7,13 l 2,0 Q 9.2187,13 9.3594,12.8594 9.5,12.7188 9.5,12.5 l 0,-3 3,0 q 0.2187,0 0.3594,-0.1406 Q 13,9.2188 13,9 Z m 9,1 Q 22,9.1719 21.4141,8.5859 20.8281,8 20,8 19.1719,8 18.5859,8.5859 18,9.1719 18,10 18,10.8281 18.5859,11.4141 19.1719,12 20,12 20.8281,12 21.4141,11.4141 22,10.8281 22,10 Z M 26,6 Q 26,5.1719 25.4141,4.5859 24.8281,4 24,4 23.1719,4 22.5859,4.5859 22,5.1719 22,6 22,6.8281 22.5859,7.4141 23.1719,8 24,8 24.8281,8 25.4141,7.4141 26,6.8281 26,6 Z m 4,2 q 0,3.3125 -2.3437,5.6563 Q 25.3125,16 22,16 19,16 16.7188,14 l -3.4376,0 Q 11,16 8,16 4.6875,16 2.3437,13.6563 0,11.3125 0,8 0,4.6875 2.3437,2.3437 4.6875,0 8,0 L 22,0 Q 25.3125,0 27.6563,2.3437 30,4.6875 30,8 Z"
     id="path4"
     inkscape:connector-curvature="0" />
</svg>
