<?xml version="1.0" encoding="UTF-8" standalone="no"?>
<svg
   xmlns:dc="http://purl.org/dc/elements/1.1/"
   xmlns:cc="http://creativecommons.org/ns#"
   xmlns:rdf="http://www.w3.org/1999/02/22-rdf-syntax-ns#"
   xmlns:svg="http://www.w3.org/2000/svg"
   xmlns="http://www.w3.org/2000/svg"
   xmlns:sodipodi="http://sodipodi.sourceforge.net/DTD/sodipodi-0.dtd"
   xmlns:inkscape="http://www.inkscape.org/namespaces/inkscape"
   width="20.105673"
   height="16"
   viewBox="0 0 20.105673 16"
   id="svg2"
   version="1.1"
   inkscape:version="0.91 r13725"
   sodipodi:docname="icon-home.svg">
  <metadata
     id="metadata10">
    <rdf:RDF>
      <cc:Work
         rdf:about="">
        <dc:format>image/svg+xml</dc:format>
        <dc:type
           rdf:resource="http://purl.org/dc/dcmitype/StillImage" />
        <dc:title></dc:title>
      </cc:Work>
    </rdf:RDF>
  </metadata>
  <defs
     id="defs8" />
  <sodipodi:namedview
     pagecolor="#ffffff"
     bordercolor="#666666"
     borderopacity="1"
     objecttolerance="10"
     gridtolerance="10"
     guidetolerance="10"
     inkscape:pageopacity="0"
     inkscape:pageshadow="2"
     inkscape:window-width="720"
     inkscape:window-height="480"
     id="namedview6"
     showgrid="false"
     fit-margin-top="0"
     fit-margin-left="0"
     fit-margin-right="0"
     fit-margin-bottom="0"
     inkscape:zoom="0.13169643"
     inkscape:cx="10.052841"
     inkscape:cy="6.5"
     inkscape:window-x="0"
     inkscape:window-y="0"
     inkscape:window-maximized="0"
     inkscape:current-layer="svg2" />
  <path
     d="m 17.236001,9.2159 0,5.98597 q 0,0.32424 -0.23694,0.56119 Q 16.762121,16 16.437881,16 l -4.78878,0 0,-4.78878 -3.1925196,0 0,4.78878 -4.78878,0 q -0.32424,0 -0.56118,-0.23694 -0.23694,-0.23695 -0.23694,-0.56119 l 0,-5.98597 q 0,-0.0125 0.006,-0.0374 0.006,-0.0249 0.006,-0.0374 l 7.1711596,-5.91117 7.17069,5.91115 q 0.0125,0.0249 0.0125,0.0748 z m 2.78099,-0.86048 -0.77319,0.92283 q -0.0998,0.11224 -0.26189,0.13718 l -0.0374,0 q -0.16212,0 -0.26189,-0.0873 L 10.052841,2.1325 1.4230714,9.32814 q -0.14965,0.0998 -0.2993,0.0873 Q 0.96165136,9.39054 0.86188136,9.27826 l -0.77319,-0.92283 q -0.0998,-0.12471 -0.0873,-0.29307 0.0125,-0.16835 0.13718,-0.26812 L 9.1050514,0.32425 Q 9.5041314,0 10.052841,0 q 0.54871,0 0.94778,0.32424 l 3.04287,2.54404 0,-2.4318 q 0,-0.17459 0.11223,-0.28683 0.11224,-0.11224 0.28683,-0.11224 l 2.39439,0 q 0.17459,0 0.28683,0.11224 0.11223,0.11224 0.11223,0.28683 l 0,5.08807 2.7311,2.26968 q 0.12471,0.0998 0.13718,0.26812 0.0125,0.16836 -0.0873,0.29307 z"
     id="path4"
     inkscape:connector-curvature="0" />
</svg>
