<?xml version="1.0" encoding="UTF-8" standalone="no"?>
<!-- Created with Inkscape (http://www.inkscape.org/) -->

<svg
   xmlns:dc="http://purl.org/dc/elements/1.1/"
   xmlns:cc="http://creativecommons.org/ns#"
   xmlns:rdf="http://www.w3.org/1999/02/22-rdf-syntax-ns#"
   xmlns:svg="http://www.w3.org/2000/svg"
   xmlns="http://www.w3.org/2000/svg"
   xmlns:sodipodi="http://sodipodi.sourceforge.net/DTD/sodipodi-0.dtd"
   xmlns:inkscape="http://www.inkscape.org/namespaces/inkscape"
   id="svg2"
   version="1.1"
   inkscape:version="0.91 r13725"
   xml:space="preserve"
   width="400.00006"
   height="329.29782"
   viewBox="0 0 400.00006 329.29782"
   sodipodi:docname="replay.svg"><metadata
     id="metadata8"><rdf:RDF><cc:Work
         rdf:about=""><dc:format>image/svg+xml</dc:format><dc:type
           rdf:resource="http://purl.org/dc/dcmitype/StillImage" /><dc:title></dc:title></cc:Work></rdf:RDF></metadata><defs
     id="defs6"><clipPath
       clipPathUnits="userSpaceOnUse"
       id="clipPath18"><path
         d="m 0,0 14670,0 0,12131.8 -14670,0 L 0,0 Z"
         id="path20"
         inkscape:connector-curvature="0" /></clipPath></defs><sodipodi:namedview
     pagecolor="#ffffff"
     bordercolor="#666666"
     borderopacity="1"
     objecttolerance="10"
     gridtolerance="10"
     guidetolerance="10"
     inkscape:pageopacity="0"
     inkscape:pageshadow="2"
     inkscape:window-width="1319"
     inkscape:window-height="694"
     id="namedview4"
     showgrid="false"
     inkscape:zoom="0.1578035"
     inkscape:cx="-73.885404"
     inkscape:cy="-332.17572"
     inkscape:window-x="13"
     inkscape:window-y="15"
     inkscape:window-maximized="0"
     inkscape:current-layer="g10"
     fit-margin-top="0"
     fit-margin-left="0"
     fit-margin-right="0"
     fit-margin-bottom="0" /><g
     id="g10"
     inkscape:groupmode="layer"
     inkscape:label="ink_ext_XXXXXX"
     transform="matrix(1.25,0,0,-1.25,-7.7917409,2096.9547)"><g
       id="g12"
       transform="matrix(0.02231499,0,0,0.02231499,2.5533931,1410.4455)"><g
         id="g14"><g
           id="g16"
           clip-path="url(#clipPath18)"><path
             d="m 10238.9,200.762 4144.3,0 c 43,0 86,43.019 86,86.043 l 0,6383.165 c 0,43.03 -43,86.05 -86,86.05 l -4144.3,0 c -43,0 -86.1,-43.02 -86.1,-86.05 l 0,-6383.165 c 0,-43.024 43.1,-86.043 86.1,-86.043"
             style="fill:none;stroke:#228b22;stroke-width:71.70089722;stroke-linecap:butt;stroke-linejoin:miter;stroke-miterlimit:10;stroke-dasharray:none;stroke-opacity:1"
             id="path22"
             inkscape:connector-curvature="0" /><path
             d="m 1312.12,7976.65 3785.81,0 c 43.02,0 86.04,43.02 86.04,86.04 l 0,3785.81 c 0,43 -43.02,86 -86.04,86 l -3785.81,0 c -43.01,0 -86.03,-43 -86.03,-86 l 0,-3785.81 c 0,-43.02 43.02,-86.04 86.03,-86.04"
             style="fill:none;stroke:#ff8a00;stroke-width:71.70089722;stroke-linecap:butt;stroke-linejoin:miter;stroke-miterlimit:10;stroke-dasharray:none;stroke-opacity:1"
             id="path24"
             inkscape:connector-curvature="0" /><path
             d="m 5556.82,7976.65 7657.68,0 c 43,0 86,43.02 86,86.04 l 0,3785.81 c 0,43 -43,86 -86,86 l -7657.68,0 c -43.02,0 -86.04,-43 -86.04,-86 l 0,-3785.81 c 0,-43.02 43.02,-86.04 86.04,-86.04"
             style="fill:none;stroke:#dc153f;stroke-width:71.70089722;stroke-linecap:butt;stroke-linejoin:miter;stroke-miterlimit:10;stroke-dasharray:none;stroke-opacity:1"
             id="path26"
             inkscape:connector-curvature="0" /><path
             d="M 286.805,2782 9780,2782 c 43.02,0 86.04,43.02 86.04,86.04 l 0,3818 c 0,43.01 -43.02,86.04 -86.04,86.04 l -9493.195,0 c -43.024,0 -86.043,-43.03 -86.043,-86.04 l 0,-3818 c 0,-43.02 43.019,-86.04 86.043,-86.04"
             style="fill:none;stroke:#00c0ff;stroke-width:71.70089722;stroke-linecap:butt;stroke-linejoin:miter;stroke-miterlimit:10;stroke-dasharray:none;stroke-opacity:1"
             id="path28"
             inkscape:connector-curvature="0" /><path
             d="m 5011.89,11246.2 c 0,285.1 -808.96,516.3 -1806.86,516.3 -997.9,0 -1806.86,-231.2 -1806.86,-516.3 0,-285.1 808.96,-516.2 1806.86,-516.2 997.9,0 1806.86,231.1 1806.86,516.2"
             style="fill:none;stroke:#ff8a00;stroke-width:28.68040085;stroke-linecap:butt;stroke-linejoin:miter;stroke-miterlimit:10;stroke-dasharray:none;stroke-opacity:1"
             id="path30"
             inkscape:connector-curvature="0" /><g
             id="g32"
             transform="scale(7.17009,7.17009)"><text
               transform="matrix(1,0,0,-1,345.5,1556.59)"
               style="font-variant:normal;font-weight:normal;font-size:48px;font-family:Helvetica;-inkscape-font-specification:Helvetica;writing-mode:lr-tb;fill:#000000;fill-opacity:1;fill-rule:nonzero;stroke:none"
               id="text34"><tspan
                 x="0 27.715429 58.070862 91.114288 105.48572 133.20116 160.91658 175.28801"
                 y="0"
                 sodipodi:role="line"
                 id="tspan36">LFP data</tspan></text>
</g><path
             d="m 5011.89,8664.98 c 0,285.11 -808.96,516.25 -1806.86,516.25 -997.9,0 -1806.86,-231.14 -1806.86,-516.25 0,-285.11 808.96,-516.25 1806.86,-516.25 997.9,0 1806.86,231.14 1806.86,516.25"
             style="fill:none;stroke:#ff8a00;stroke-width:28.68040085;stroke-linecap:butt;stroke-linejoin:miter;stroke-miterlimit:10;stroke-dasharray:none;stroke-opacity:1"
             id="path38"
             inkscape:connector-curvature="0" /><g
             id="g40"
             transform="scale(7.17009,7.17009)"><text
               transform="matrix(1,0,0,-1,258.5,1196.59)"
               style="font-variant:normal;font-weight:normal;font-size:48px;font-family:Helvetica;-inkscape-font-specification:Helvetica;writing-mode:lr-tb;fill:#000000;fill-opacity:1;fill-rule:nonzero;stroke:none"
               id="text42"><tspan
                 x="0 33.412338 80.120682 116.17302 130.91336 156.30969 184.39404 212.47838 240.56271 252.61507 280.6994 308.78375 323.52408 351.60843"
                 y="0"
                 sodipodi:role="line"
                 id="tspan44">SWR candidates</tspan></text>
</g><path
             d="m 3205.03,10727 c 0,-392 0,-934.02 0,-1363.94"
             style="fill:none;stroke:#ff8a00;stroke-width:28.68040085;stroke-linecap:butt;stroke-linejoin:miter;stroke-miterlimit:10;stroke-dasharray:none;stroke-opacity:1"
             id="path46"
             inkscape:connector-curvature="0" /><path
             d="m 3267.77,9362.63 -62.74,-179.18 -62.74,179.25"
             style="fill:#ff8a00;fill-opacity:1;fill-rule:nonzero;stroke:none"
             id="path48"
             inkscape:connector-curvature="0" /><path
             d="m 3267.77,9362.63 -62.74,-179.18 -62.74,179.25 125.48,-0.07 z"
             style="fill:none;stroke:#ff8a00;stroke-width:28.68040085;stroke-linecap:butt;stroke-linejoin:miter;stroke-miterlimit:10;stroke-dasharray:none;stroke-opacity:1"
             id="path50"
             inkscape:connector-curvature="0" /><path
             d="m 4946,6067.69 c 0,294.97 -1023.43,534.1 -2285.9,534.1 -1262.46,0 -2285.893,-239.13 -2285.893,-534.1 0,-294.98 1023.433,-534.1 2285.893,-534.1 1262.47,0 2285.9,239.12 2285.9,534.1"
             style="fill:none;stroke:#00c0ff;stroke-width:28.68040085;stroke-linecap:butt;stroke-linejoin:miter;stroke-miterlimit:10;stroke-dasharray:none;stroke-opacity:1"
             id="path52"
             inkscape:connector-curvature="0" /><g
             id="g54"
             transform="scale(7.17009,7.17009)"><text
               transform="matrix(1,0,0,-1,155,854.85)"
               style="font-variant:normal;font-weight:normal;font-size:48px;font-family:Helvetica;-inkscape-font-specification:Helvetica;writing-mode:lr-tb;fill:#000000;fill-opacity:1;fill-rule:nonzero;stroke:none"
               id="text56"><tspan
                 x="0 28.61639 57.23278 83.161171 111.77756 137.70595 150.29034 178.90672 207.52312 222.79552 251.4119 280.02829 305.95667 334.57306 363.18945 375.77386 404.39023"
                 y="0"
                 sodipodi:role="line"
                 id="tspan58">bayesian decoding</tspan></text>
<text
               transform="matrix(1,0,0,-1,188,809.4503)"
               style="font-variant:normal;font-weight:normal;font-size:36px;font-family:Helvetica;-inkscape-font-specification:Helvetica;writing-mode:lr-tb;fill:#000000;fill-opacity:1;fill-rule:nonzero;stroke:none"
               id="text60"><tspan
                 x="0 12.024852 32.077705 52.130554 70.167404 80.212257 100.26511 112.28996 120.31882 140.37167 152.39651 162.44138 182.49422 194.51907 214.57193 234.62477 254.67763 274.73047 282.75934 290.78818 298.81705 308.86188 316.89075 336.9436 354.98044"
                 y="0"
                 sodipodi:role="line"
                 id="tspan62">(posterior probabilities)</tspan></text>
</g><path
             d="m 3096.69,8148.73 c -82.24,-392.2 -196.39,-936.27 -287.38,-1369.7"
             style="fill:none;stroke:#ff8a00;stroke-width:28.68040085;stroke-linecap:butt;stroke-linejoin:miter;stroke-miterlimit:10;stroke-dasharray:none;stroke-opacity:1"
             id="path64"
             inkscape:connector-curvature="0" /><path
             d="m 2870.19,6763.33 -98.23,-162.55 -24.6,188.29"
             style="fill:#ff8a00;fill-opacity:1;fill-rule:nonzero;stroke:none"
             id="path66"
             inkscape:connector-curvature="0" /><path
             d="m 2870.19,6763.33 -98.23,-162.55 -24.6,188.29 122.83,-25.74 z"
             style="fill:none;stroke:#ff8a00;stroke-width:28.68040085;stroke-linecap:butt;stroke-linejoin:miter;stroke-miterlimit:10;stroke-dasharray:none;stroke-opacity:1"
             id="path68"
             inkscape:connector-curvature="0" /><path
             d="m 9697.54,6067.69 c 0,294.97 -1006.38,534.1 -2247.82,534.1 -1241.43,0 -2247.82,-239.13 -2247.82,-534.1 0,-294.98 1006.39,-534.1 2247.82,-534.1 1241.44,0 2247.82,239.12 2247.82,534.1"
             style="fill:none;stroke:#00c0ff;stroke-width:28.68040085;stroke-linecap:butt;stroke-linejoin:miter;stroke-miterlimit:10;stroke-dasharray:none;stroke-opacity:1"
             id="path70"
             inkscape:connector-curvature="0" /><g
             id="g72"
             transform="scale(7.17009,7.17009)"><text
               transform="matrix(1,0,0,-1,827,854.85)"
               style="font-variant:normal;font-weight:normal;font-size:48px;font-family:Helvetica;-inkscape-font-specification:Helvetica;writing-mode:lr-tb;fill:#000000;fill-opacity:1;fill-rule:nonzero;stroke:none"
               id="text74"><tspan
                 x="0 15.27613 43.896259 85.812393 114.43252 127.02065 155.64078 170.91692 199.53703 214.81317 256.72931 285.34943 300.62555 326.55768 355.17783 367.76596 396.38608"
                 y="0"
                 sodipodi:role="line"
                 id="tspan76">template matching</tspan></text>
<text
               transform="matrix(1,0,0,-1,855,809.4503)"
               style="font-variant:normal;font-weight:normal;font-size:36px;font-family:Helvetica;-inkscape-font-specification:Helvetica;writing-mode:lr-tb;fill:#000000;fill-opacity:1;fill-rule:nonzero;stroke:none"
               id="text78"><tspan
                 x="0 12.027206 24.054413 44.109619 64.164825 82.204033 94.231239 114.28645 126.31365 146.36885 166.42406 178.45126 188.49847 206.53767 226.59288 238.62009 250.64729 270.70251 278.7337 298.78891 308.83612 316.86734 336.92255 356.97775"
                 y="0"
                 sodipodi:role="line"
                 id="tspan80">(rank-order correlation)</tspan></text>
</g><path
             d="M 3971.23,8196.13 C 4675.54,7765.21 5722.66,7124.48 6483.91,6658.64"
             style="fill:none;stroke:#ff8a00;stroke-width:28.68040085;stroke-linecap:butt;stroke-linejoin:miter;stroke-miterlimit:10;stroke-dasharray:none;stroke-opacity:1"
             id="path82"
             inkscape:connector-curvature="0" /><path
             d="m 6516.89,6712.06 120.1,-147.13 -185.63,40.08"
             style="fill:#ff8a00;fill-opacity:1;fill-rule:nonzero;stroke:none"
             id="path84"
             inkscape:connector-curvature="0" /><path
             d="m 6516.89,6712.06 120.1,-147.13 -185.63,40.08 65.53,107.05 z"
             style="fill:none;stroke:#ff8a00;stroke-width:28.68040085;stroke-linecap:butt;stroke-linejoin:miter;stroke-miterlimit:10;stroke-dasharray:none;stroke-opacity:1"
             id="path86"
             inkscape:connector-curvature="0" /><path
             d="m 9256.58,11246.2 c 0,285.1 -808.96,516.3 -1806.86,516.3 -997.9,0 -1806.86,-231.2 -1806.86,-516.3 0,-285.1 808.96,-516.2 1806.86,-516.2 997.9,0 1806.86,231.1 1806.86,516.2"
             style="fill:none;stroke:#dc153f;stroke-width:28.68040085;stroke-linecap:butt;stroke-linejoin:miter;stroke-miterlimit:10;stroke-dasharray:none;stroke-opacity:1"
             id="path88"
             inkscape:connector-curvature="0" /><g
             id="g90"
             transform="scale(7.17009,7.17009)"><text
               transform="matrix(1,0,0,-1,898.5,1556.59)"
               style="font-variant:normal;font-weight:normal;font-size:48px;font-family:Helvetica;-inkscape-font-specification:Helvetica;writing-mode:lr-tb;fill:#000000;fill-opacity:1;fill-rule:nonzero;stroke:none"
               id="text92"><tspan
                 x="0 26.073021 54.834042 67.563057 93.636078 106.3651 135.12611 163.88715 179.30415 208.06519 236.8262 252.24323"
                 y="0"
                 sodipodi:role="line"
                 id="tspan94">spiking data</tspan></text>
</g><path
             d="M 6681.02,10778.8 C 5963.58,10342.5 4891.86,9690.8 4128.32,9226.47"
             style="fill:none;stroke:#ff8a00;stroke-width:28.68040085;stroke-linecap:butt;stroke-linejoin:miter;stroke-miterlimit:10;stroke-dasharray:none;stroke-opacity:1"
             id="path96"
             inkscape:connector-curvature="0" /><path
             d="m 4160.88,9172.84 -185.71,-39.51 120.53,146.7"
             style="fill:#ff8a00;fill-opacity:1;fill-rule:nonzero;stroke:none"
             id="path98"
             inkscape:connector-curvature="0" /><path
             d="m 4160.88,9172.84 -185.71,-39.51 120.53,146.7 65.18,-107.19 z"
             style="fill:none;stroke:#ff8a00;stroke-width:28.68040085;stroke-linecap:butt;stroke-linejoin:miter;stroke-miterlimit:10;stroke-dasharray:none;stroke-opacity:1"
             id="path100"
             inkscape:connector-curvature="0" /><path
             d="m 11715.9,8664.98 c 0,285.11 -808.9,516.25 -1806.84,516.25 -997.9,0 -1806.86,-231.14 -1806.86,-516.25 0,-285.11 808.96,-516.25 1806.86,-516.25 997.94,0 1806.84,231.14 1806.84,516.25"
             style="fill:none;stroke:#dc153f;stroke-width:28.68040085;stroke-linecap:butt;stroke-linejoin:miter;stroke-miterlimit:10;stroke-dasharray:none;stroke-opacity:1"
             id="path102"
             inkscape:connector-curvature="0" /><g
             id="g104"
             transform="scale(7.17009,7.17009)"><text
               transform="matrix(1,0,0,-1,1224.5,1196.59)"
               style="font-variant:normal;font-weight:normal;font-size:48px;font-family:Helvetica;-inkscape-font-specification:Helvetica;writing-mode:lr-tb;fill:#000000;fill-opacity:1;fill-rule:nonzero;stroke:none"
               id="text106"><tspan
                 x="0 15.61694 44.577881 73.538818 86.467758 115.4287 144.38963 160.00658 186.27953 215.24046 233.49741 259.77036 288.73129"
                 y="0"
                 sodipodi:role="line"
                 id="tspan108">tuning curves</tspan></text>
</g><path
             d="M 7926.82,10745.5 C 8321.39,10331.4 8883.88,9741 9308.93,9294.87"
             style="fill:none;stroke:#dc153f;stroke-width:28.68040085;stroke-linecap:butt;stroke-linejoin:miter;stroke-miterlimit:10;stroke-dasharray:none;stroke-opacity:1"
             id="path110"
             inkscape:connector-curvature="0" /><path
             d="m 9355.03,9337.39 78.22,-173.01 -169.07,86.47"
             style="fill:#dc153f;fill-opacity:1;fill-rule:nonzero;stroke:none"
             id="path112"
             inkscape:connector-curvature="0" /><path
             d="m 9355.03,9337.39 78.22,-173.01 -169.07,86.47 90.85,86.54 z"
             style="fill:none;stroke:#dc153f;stroke-width:28.68040085;stroke-linecap:butt;stroke-linejoin:miter;stroke-miterlimit:10;stroke-dasharray:none;stroke-opacity:1"
             id="path114"
             inkscape:connector-curvature="0" /><path
             d="M 7173.6,10733.3 C 6781.11,10033.6 6011.33,8763.86 5133.78,7861.93 4691.46,7407.35 4122.73,6985.96 3642.12,6665.96"
             style="fill:none;stroke:#00c0ff;stroke-width:28.68040085;stroke-linecap:butt;stroke-linejoin:miter;stroke-miterlimit:10;stroke-dasharray:none;stroke-opacity:1"
             id="path116"
             inkscape:connector-curvature="0" /><path
             d="m 3673.74,6611.68 -184.27,-45.96 115.44,150.86"
             style="fill:#00c0ff;fill-opacity:1;fill-rule:nonzero;stroke:none"
             id="path118"
             inkscape:connector-curvature="0" /><path
             d="m 3673.74,6611.68 -184.27,-45.96 115.44,150.86 68.83,-104.9 z"
             style="fill:none;stroke:#00c0ff;stroke-width:28.68040085;stroke-linecap:butt;stroke-linejoin:miter;stroke-miterlimit:10;stroke-dasharray:none;stroke-opacity:1"
             id="path120"
             inkscape:connector-curvature="0" /><path
             d="m 7449.72,10728.4 c 0,-930.97 0,-2888.63 0,-3946.36"
             style="fill:none;stroke:#00c0ff;stroke-width:28.68040085;stroke-linecap:butt;stroke-linejoin:miter;stroke-miterlimit:10;stroke-dasharray:none;stroke-opacity:1"
             id="path122"
             inkscape:connector-curvature="0" /><path
             d="m 7512.46,6780.97 -62.74,-179.26 -62.74,179.26"
             style="fill:#00c0ff;fill-opacity:1;fill-rule:nonzero;stroke:none"
             id="path124"
             inkscape:connector-curvature="0" /><path
             d="m 7512.46,6780.97 -62.74,-179.26 -62.74,179.26 125.48,0 z"
             style="fill:none;stroke:#00c0ff;stroke-width:28.68040085;stroke-linecap:butt;stroke-linejoin:miter;stroke-miterlimit:10;stroke-dasharray:none;stroke-opacity:1"
             id="path126"
             inkscape:connector-curvature="0" /><path
             d="m 13128.4,11246.2 c 0,285.1 -808.9,516.3 -1806.8,516.3 -997.9,0 -1806.89,-231.2 -1806.89,-516.3 0,-285.1 808.99,-516.2 1806.89,-516.2 997.9,0 1806.8,231.1 1806.8,516.2"
             style="fill:none;stroke:#dc153f;stroke-width:28.68040085;stroke-linecap:butt;stroke-linejoin:miter;stroke-miterlimit:10;stroke-dasharray:none;stroke-opacity:1"
             id="path128"
             inkscape:connector-curvature="0" /><g
             id="g130"
             transform="scale(7.17009,7.17009)"><text
               transform="matrix(1,0,0,-1,1388,1556.59)"
               style="font-variant:normal;font-weight:normal;font-size:48px;font-family:Helvetica;-inkscape-font-specification:Helvetica;writing-mode:lr-tb;fill:#000000;fill-opacity:1;fill-rule:nonzero;stroke:none"
               id="text132"><tspan
                 x="0 28.384411 56.768822 85.153229 113.53764 139.23405 151.58646 179.97087 208.35529 226.03569 254.4201 266.77252 281.81293 310.19733 338.58173 353.62216"
                 y="0"
                 sodipodi:role="line"
                 id="tspan134">behavioural data</tspan></text>
</g><path
             d="m 11040.8,10733.2 c -219.5,-401.2 -526.4,-962.02 -765.3,-1398.46"
             style="fill:none;stroke:#dc153f;stroke-width:28.68040085;stroke-linecap:butt;stroke-linejoin:miter;stroke-miterlimit:10;stroke-dasharray:none;stroke-opacity:1"
             id="path136"
             inkscape:connector-curvature="0" /><path
             d="m 10330.4,9304.2 -141.1,-127.13 31,187.35"
             style="fill:#dc153f;fill-opacity:1;fill-rule:nonzero;stroke:none"
             id="path138"
             inkscape:connector-curvature="0" /><path
             d="m 10330.4,9304.2 -141.1,-127.13 31,187.35 110.1,-60.22 z"
             style="fill:none;stroke:#dc153f;stroke-width:28.68040085;stroke-linecap:butt;stroke-linejoin:miter;stroke-miterlimit:10;stroke-dasharray:none;stroke-opacity:1"
             id="path140"
             inkscape:connector-curvature="0" /><path
             d="m 14182.4,6067.69 c 0,285.11 -808.9,516.24 -1806.8,516.24 -997.9,0 -1806.9,-231.13 -1806.9,-516.24 0,-285.12 809,-516.25 1806.9,-516.25 997.9,0 1806.8,231.13 1806.8,516.25"
             style="fill:none;stroke:#228b22;stroke-width:28.68040085;stroke-linecap:butt;stroke-linejoin:miter;stroke-miterlimit:10;stroke-dasharray:none;stroke-opacity:1"
             id="path142"
             inkscape:connector-curvature="0" /><g
             id="g144"
             transform="scale(7.17009,7.17009)"><text
               transform="matrix(1,0,0,-1,1517.5,834.35)"
               style="font-variant:normal;font-weight:normal;font-size:48px;font-family:Helvetica;-inkscape-font-specification:Helvetica;writing-mode:lr-tb;fill:#000000;fill-opacity:1;fill-rule:nonzero;stroke:none"
               id="text146"><tspan
                 x="0 26.046301 38.7486 56.7789 72.169197 100.9035 129.6378 142.3401 157.73039 173.1207 191.151 219.8853 232.5876 261.3219 287.36819 302.75851 331.4928 349.5231 362.2254 390.95969"
                 y="0"
                 sodipodi:role="line"
                 id="tspan148">virtual trajectories</tspan></text>
</g><path
             d="m 11464.3,10731.2 c 112.2,-416.2 268.1,-1018.09 380.7,-1549.97 174.9,-826.35 331.4,-1785.64 428.3,-2418.62"
             style="fill:none;stroke:#228b22;stroke-width:28.68040085;stroke-linecap:butt;stroke-linejoin:miter;stroke-miterlimit:10;stroke-dasharray:none;stroke-opacity:1"
             id="path150"
             inkscape:connector-curvature="0" /><path
             d="m 12335.4,6771.79 -35.1,-186.64 -88.9,167.85"
             style="fill:#228b22;fill-opacity:1;fill-rule:nonzero;stroke:none"
             id="path152"
             inkscape:connector-curvature="0" /><path
             d="m 12335.4,6771.79 -35.1,-186.64 -88.9,167.85 124,18.79 z"
             style="fill:none;stroke:#228b22;stroke-width:28.68040085;stroke-linecap:butt;stroke-linejoin:miter;stroke-miterlimit:10;stroke-dasharray:none;stroke-opacity:1"
             id="path154"
             inkscape:connector-curvature="0" /><path
             d="M 8782.36,8261.3 C 7515.18,7807.29 5455,7069.06 4078.99,6576.05"
             style="fill:none;stroke:#00c0ff;stroke-width:28.68040085;stroke-linecap:butt;stroke-linejoin:miter;stroke-miterlimit:10;stroke-dasharray:none;stroke-opacity:1"
             id="path156"
             inkscape:connector-curvature="0" /><path
             d="m 4098.35,6516.32 -189.94,-1.36 147.57,119.52"
             style="fill:#00c0ff;fill-opacity:1;fill-rule:nonzero;stroke:none"
             id="path158"
             inkscape:connector-curvature="0" /><path
             d="m 4098.35,6516.32 -189.94,-1.36 147.57,119.52 42.37,-118.16 z"
             style="fill:none;stroke:#00c0ff;stroke-width:28.68040085;stroke-linecap:butt;stroke-linejoin:miter;stroke-miterlimit:10;stroke-dasharray:none;stroke-opacity:1"
             id="path160"
             inkscape:connector-curvature="0" /><path
             d="M 9434.9,8164.22 C 9045.71,7753.16 8491.68,7168.08 8067.78,6720.38"
             style="fill:none;stroke:#00c0ff;stroke-width:28.68040085;stroke-linecap:butt;stroke-linejoin:miter;stroke-miterlimit:10;stroke-dasharray:none;stroke-opacity:1"
             id="path162"
             inkscape:connector-curvature="0" /><path
             d="m 8112.31,6676.21 -168.79,-87.04 77.66,173.3"
             style="fill:#00c0ff;fill-opacity:1;fill-rule:nonzero;stroke:none"
             id="path164"
             inkscape:connector-curvature="0" /><path
             d="m 8112.31,6676.21 -168.79,-87.04 77.66,173.3 91.13,-86.26 z"
             style="fill:none;stroke:#00c0ff;stroke-width:28.68040085;stroke-linecap:butt;stroke-linejoin:miter;stroke-miterlimit:10;stroke-dasharray:none;stroke-opacity:1"
             id="path166"
             inkscape:connector-curvature="0" /><path
             d="m 10384.7,8164.22 c 396.6,-417.73 964,-1015.21 1391.7,-1465.56"
             style="fill:none;stroke:#228b22;stroke-width:28.68040085;stroke-linecap:butt;stroke-linejoin:miter;stroke-miterlimit:10;stroke-dasharray:none;stroke-opacity:1"
             id="path168"
             inkscape:connector-curvature="0" /><path
             d="m 11823.5,6740.1 78,-173.16 -168.9,86.76"
             style="fill:#228b22;fill-opacity:1;fill-rule:nonzero;stroke:none"
             id="path170"
             inkscape:connector-curvature="0" /><path
             d="m 11823.5,6740.1 78,-173.16 -168.9,86.76 90.9,86.4 z"
             style="fill:none;stroke:#228b22;stroke-width:28.68040085;stroke-linecap:butt;stroke-linejoin:miter;stroke-miterlimit:10;stroke-dasharray:none;stroke-opacity:1"
             id="path172"
             inkscape:connector-curvature="0" /><path
             d="m 14298.4,3470.32 c 0,285.12 -889.7,516.25 -1987.4,516.25 -1097.6,0 -1987.4,-231.13 -1987.4,-516.25 0,-285.11 889.8,-516.24 1987.4,-516.24 1097.7,0 1987.4,231.13 1987.4,516.24"
             style="fill:none;stroke:#228b22;stroke-width:28.68040085;stroke-linecap:butt;stroke-linejoin:miter;stroke-miterlimit:10;stroke-dasharray:none;stroke-opacity:1"
             id="path174"
             inkscape:connector-curvature="0" /><g
             id="g176"
             transform="scale(7.17009,7.17009)"><text
               transform="matrix(1,0,0,-1,1474,472.1)"
               style="font-variant:normal;font-weight:normal;font-size:48px;font-family:Helvetica;-inkscape-font-specification:Helvetica;writing-mode:lr-tb;fill:#000000;fill-opacity:1;fill-rule:nonzero;stroke:none"
               id="text178"><tspan
                 x="0 25.849609 38.355221 80.188828 108.72644 121.23205 149.76965 164.96327 193.50089 222.03848 237.2321 263.0817 291.61932 320.15692 348.69455 377.23215 405.76974 431.61938 460.15698"
                 y="0"
                 sodipodi:role="line"
                 id="tspan180">simulated sequences</tspan></text>
</g><path
             d="m 9909.28,8147.87 c 19.36,-643.44 116.82,-1761.12 530.32,-2612.56 270.1,-556.19 737,-1071.72 1136.8,-1448.58"
             style="fill:none;stroke:#228b22;stroke-width:28.68040085;stroke-linecap:butt;stroke-linejoin:miter;stroke-miterlimit:10;stroke-dasharray:none;stroke-opacity:1"
             id="path182"
             inkscape:connector-curvature="0" /><path
             d="m 11619.8,4132.05 89.2,-167.64 -174.3,75.43"
             style="fill:#228b22;fill-opacity:1;fill-rule:nonzero;stroke:none"
             id="path184"
             inkscape:connector-curvature="0" /><path
             d="m 11619.8,4132.05 89.2,-167.64 -174.3,75.43 85.1,92.21 z"
             style="fill:none;stroke:#228b22;stroke-width:28.68040085;stroke-linecap:butt;stroke-linejoin:miter;stroke-miterlimit:10;stroke-dasharray:none;stroke-opacity:1"
             id="path186"
             inkscape:connector-curvature="0" /><path
             d="m 9384.43,3470.32 c 0,285.12 -866.2,516.25 -1934.71,516.25 -1068.51,0 -1934.7,-231.13 -1934.7,-516.25 0,-285.11 866.19,-516.24 1934.7,-516.24 1068.51,0 1934.71,231.13 1934.71,516.24"
             style="fill:none;stroke:#00c0ff;stroke-width:28.68040085;stroke-linecap:butt;stroke-linejoin:miter;stroke-miterlimit:10;stroke-dasharray:none;stroke-opacity:1"
             id="path188"
             inkscape:connector-curvature="0" /><g
             id="g190"
             transform="scale(7.17009,7.17009)"><text
               transform="matrix(1,0,0,-1,802.5,472.1)"
               style="font-variant:normal;font-weight:normal;font-size:48px;font-family:Helvetica;-inkscape-font-specification:Helvetica;writing-mode:lr-tb;fill:#000000;fill-opacity:1;fill-rule:nonzero;stroke:none"
               id="text192"><tspan
                 x="0 28.55822 70.412437 98.970657 111.49688 129.3511 141.87732 167.74754 196.30576 208.83199 224.0462 249.91643 278.47464 307.03287 335.59109 364.14929 392.70752 418.57773 447.13596"
                 y="0"
                 sodipodi:role="line"
                 id="tspan194">empirical sequences</tspan></text>
</g><path
             d="M 3563.82,5577.61 C 4381.36,5134.29 5583.92,4482.16 6434.29,4020.98"
             style="fill:none;stroke:#00c0ff;stroke-width:28.68040085;stroke-linecap:butt;stroke-linejoin:miter;stroke-miterlimit:10;stroke-dasharray:none;stroke-opacity:1"
             id="path196"
             inkscape:connector-curvature="0" /><path
             d="m 6466.49,4074.91 127.7,-140.61 -187.5,30.26"
             style="fill:#00c0ff;fill-opacity:1;fill-rule:nonzero;stroke:none"
             id="path198"
             inkscape:connector-curvature="0" /><path
             d="m 6466.49,4074.91 127.7,-140.61 -187.5,30.26 59.8,110.35 z"
             style="fill:none;stroke:#00c0ff;stroke-width:28.68040085;stroke-linecap:butt;stroke-linejoin:miter;stroke-miterlimit:10;stroke-dasharray:none;stroke-opacity:1"
             id="path200"
             inkscape:connector-curvature="0" /><path
             d="m 7449.72,5532.66 c 0,-394.57 0,-934.98 0,-1363.61"
             style="fill:none;stroke:#00c0ff;stroke-width:28.68040085;stroke-linecap:butt;stroke-linejoin:miter;stroke-miterlimit:10;stroke-dasharray:none;stroke-opacity:1"
             id="path202"
             inkscape:connector-curvature="0" /><path
             d="m 7512.46,4166.18 -62.74,-179.25 -62.74,179.25"
             style="fill:#00c0ff;fill-opacity:1;fill-rule:nonzero;stroke:none"
             id="path204"
             inkscape:connector-curvature="0" /><path
             d="m 7512.46,4166.18 -62.74,-179.25 -62.74,179.25 125.48,0 z"
             style="fill:none;stroke:#00c0ff;stroke-width:28.68040085;stroke-linecap:butt;stroke-linejoin:miter;stroke-miterlimit:10;stroke-dasharray:none;stroke-opacity:1"
             id="path206"
             inkscape:connector-curvature="0" /><path
             d="m 14024.7,889.09 c 0,285.11 -809,516.25 -1806.9,516.25 -997.9,0 -1806.8,-231.14 -1806.8,-516.25 0,-285.113 808.9,-516.246 1806.8,-516.246 997.9,0 1806.9,231.133 1806.9,516.246"
             style="fill:none;stroke:#228b22;stroke-width:28.68040085;stroke-linecap:butt;stroke-linejoin:miter;stroke-miterlimit:10;stroke-dasharray:none;stroke-opacity:1"
             id="path208"
             inkscape:connector-curvature="0" /><g
             id="g210"
             transform="scale(7.17009,7.17009)"><text
               transform="matrix(1,0,0,-1,1530.5,112.1)"
               style="font-variant:normal;font-weight:normal;font-size:48px;font-family:Helvetica;-inkscape-font-specification:Helvetica;writing-mode:lr-tb;fill:#000000;fill-opacity:1;fill-rule:nonzero;stroke:none"
               id="text212"><tspan
                 x="0 28.70175 54.7155 83.417252 112.119 127.47675 142.8345 168.84825 184.20599 212.90775 228.2655 240.93526 266.94901 282.30676 294.9765 320.99026"
                 y="0"
                 sodipodi:role="line"
                 id="tspan214">event statistics</tspan></text>
</g><path
             d="m 8307.7,3005.84 c 816.31,-441.89 2044.5,-1106.77 2906,-1573.11"
             style="fill:none;stroke:#00c0ff;stroke-width:28.68040085;stroke-linecap:butt;stroke-linejoin:miter;stroke-miterlimit:10;stroke-dasharray:none;stroke-opacity:1"
             id="path216"
             inkscape:connector-curvature="0" /><path
             d="m 11245,1487.08 127.8,-140.54 -187.5,30.19"
             style="fill:#00c0ff;fill-opacity:1;fill-rule:nonzero;stroke:none"
             id="path218"
             inkscape:connector-curvature="0" /><path
             d="m 11245,1487.08 127.8,-140.54 -187.5,30.19 59.7,110.35 z"
             style="fill:none;stroke:#00c0ff;stroke-width:28.68040085;stroke-linecap:butt;stroke-linejoin:miter;stroke-miterlimit:10;stroke-dasharray:none;stroke-opacity:1"
             id="path220"
             inkscape:connector-curvature="0" /><path
             d="m 12362.7,5551.37 c -9.8,-395.86 -23.5,-946.38 -34.3,-1381.75"
             style="fill:none;stroke:#228b22;stroke-width:28.68040085;stroke-linecap:butt;stroke-linejoin:miter;stroke-miterlimit:10;stroke-dasharray:none;stroke-opacity:1"
             id="path222"
             inkscape:connector-curvature="0" /><path
             d="m 12391.1,4165.46 -67.2,-177.67 -58.2,180.76"
             style="fill:#228b22;fill-opacity:1;fill-rule:nonzero;stroke:none"
             id="path224"
             inkscape:connector-curvature="0" /><path
             d="m 12391.1,4165.46 -67.2,-177.67 -58.2,180.76 125.4,-3.09 z"
             style="fill:none;stroke:#228b22;stroke-width:28.68040085;stroke-linecap:butt;stroke-linejoin:miter;stroke-miterlimit:10;stroke-dasharray:none;stroke-opacity:1"
             id="path226"
             inkscape:connector-curvature="0" /><path
             d="m 12213.2,2954.15 c -34.6,-392.35 -56.9,-936.35 -57.2,-1367.48"
             style="fill:none;stroke:#228b22;stroke-width:28.68040085;stroke-linecap:butt;stroke-linejoin:miter;stroke-miterlimit:10;stroke-dasharray:none;stroke-opacity:1"
             id="path228"
             inkscape:connector-curvature="0" /><path
             d="m 12218.7,1586.24 -61.5,-179.69 -64,178.83"
             style="fill:#228b22;fill-opacity:1;fill-rule:nonzero;stroke:none"
             id="path230"
             inkscape:connector-curvature="0" /><path
             d="m 12218.7,1586.24 -61.5,-179.69 -64,178.83 125.5,0.86 z"
             style="fill:none;stroke:#228b22;stroke-width:28.68040085;stroke-linecap:butt;stroke-linejoin:miter;stroke-miterlimit:10;stroke-dasharray:none;stroke-opacity:1"
             id="path232"
             inkscape:connector-curvature="0" /><path
             d="m 12315.8,1406.55 c 34.6,392.71 56.8,936.78 57.1,1367.63"
             style="fill:none;stroke:#228b22;stroke-width:28.68040085;stroke-linecap:butt;stroke-linejoin:miter;stroke-miterlimit:10;stroke-dasharray:none;stroke-opacity:1"
             id="path234"
             inkscape:connector-curvature="0" /><path
             d="m 12310.2,2774.46 61.4,179.69 64.1,-178.75"
             style="fill:#228b22;fill-opacity:1;fill-rule:nonzero;stroke:none"
             id="path236"
             inkscape:connector-curvature="0" /><path
             d="m 12310.2,2774.46 61.4,179.69 64.1,-178.75 -125.5,-0.94 z"
             style="fill:none;stroke:#228b22;stroke-width:28.68040085;stroke-linecap:butt;stroke-linejoin:miter;stroke-miterlimit:10;stroke-dasharray:none;stroke-opacity:1"
             id="path238"
             inkscape:connector-curvature="0" /></g></g></g></g></svg>